# Blender 4.5.1 LTS
# www.blender.org
mtllib bottle.mtl
o Cylinder
v 0.000000 -0.114800 -0.032500
v 0.000000 0.110200 -0.015167
v 0.012437 -0.114800 -0.030026
v 0.005804 0.110200 -0.014012
v 0.022981 -0.114800 -0.022981
v 0.010725 0.110200 -0.010725
v 0.030026 -0.114800 -0.012437
v 0.014012 0.110200 -0.005804
v 0.032500 -0.114800 0.000000
v 0.015167 0.110200 0.000000
v 0.030026 -0.114800 0.012437
v 0.014012 0.110200 0.005804
v 0.022981 -0.114800 0.022981
v 0.010725 0.110200 0.010725
v 0.012437 -0.114800 0.030026
v 0.005804 0.110200 0.014012
v 0.000000 -0.114800 0.032500
v 0.000000 0.110200 0.015167
v -0.012437 -0.114800 0.030026
v -0.005804 0.110200 0.014012
v -0.022981 -0.114800 0.022981
v -0.010725 0.110200 0.010725
v -0.030026 -0.114800 0.012437
v -0.014012 0.110200 0.005804
v -0.032500 -0.114800 0.000000
v -0.015167 0.110200 0.000000
v -0.030026 -0.114800 -0.012437
v -0.014012 0.110200 -0.005804
v -0.022981 -0.114800 -0.022981
v -0.010725 0.110200 -0.010725
v -0.012437 -0.114800 -0.030026
v -0.005804 0.110200 -0.014012
v 0.012437 0.075200 -0.030026
v 0.000000 0.075200 -0.032500
v 0.022981 0.075200 -0.022981
v 0.030026 0.075200 -0.012437
v 0.032500 0.075200 0.000000
v 0.030026 0.075200 0.012437
v 0.022981 0.075200 0.022981
v 0.012437 0.075200 0.030026
v 0.000000 0.075200 0.032500
v -0.012437 0.075200 0.030026
v -0.022981 0.075200 0.022981
v -0.030026 0.075200 0.012437
v -0.032500 0.075200 0.000000
v -0.030026 0.075200 -0.012437
v -0.022981 0.075200 -0.022981
v -0.012437 0.075200 -0.030026
v 0.005804 0.175200 -0.014012
v 0.000000 0.175200 -0.015167
v 0.010725 0.175200 -0.010725
v 0.014012 0.175200 -0.005804
v 0.015167 0.175200 0.000000
v 0.014012 0.175200 0.005804
v 0.010725 0.175200 0.010725
v 0.005804 0.175200 0.014012
v 0.000000 0.175200 0.015167
v -0.005804 0.175200 0.014012
v -0.010725 0.175200 0.010725
v -0.014012 0.175200 0.005804
v -0.015167 0.175200 0.000000
v -0.014012 0.175200 -0.005804
v -0.010725 0.175200 -0.010725
v -0.005804 0.175200 -0.014012
v 0.000000 -0.036414 -0.032500
v 0.000000 0.028713 -0.032500
v 0.012437 0.028713 -0.030026
v 0.012437 -0.036414 -0.030026
v 0.022981 0.028713 -0.022981
v 0.022981 -0.036414 -0.022981
v 0.030026 0.028713 -0.012437
v 0.030026 -0.036414 -0.012437
v 0.032500 0.028713 0.000000
v 0.032500 -0.036414 0.000000
v 0.030026 0.028713 0.012437
v 0.030026 -0.036414 0.012437
v 0.022981 0.028713 0.022981
v 0.022981 -0.036414 0.022981
v 0.012437 0.028713 0.030026
v 0.012437 -0.036414 0.030026
v 0.000000 0.028713 0.032500
v 0.000000 -0.036414 0.032500
v -0.012437 0.028713 0.030026
v -0.012437 -0.036414 0.030026
v -0.022981 0.028713 0.022981
v -0.022981 -0.036414 0.022981
v -0.030026 0.028713 0.012437
v -0.030026 -0.036414 0.012437
v -0.032500 0.028713 0.000000
v -0.032500 -0.036414 0.000000
v -0.030026 0.028713 -0.012437
v -0.030026 -0.036414 -0.012437
v -0.022981 0.028713 -0.022981
v -0.022981 -0.036414 -0.022981
v -0.012437 0.028713 -0.030026
v -0.012437 -0.036414 -0.030026
v 0.000000 0.175200 0.000000
v 0.000000 -0.114800 0.000000
vn -0.1951 -0.0000 -0.9808
vn 0.1951 -0.0000 -0.9808
vn 0.5556 -0.0000 -0.8315
vn 0.8315 -0.0000 -0.5556
vn 0.9808 -0.0000 -0.1951
vn 0.9808 -0.0000 0.1951
vn 0.8315 -0.0000 0.5556
vn 0.5556 -0.0000 0.8315
vn -0.1755 0.4369 0.8822
vn -0.1951 -0.0000 0.9808
vn -0.5556 -0.0000 0.8315
vn -0.8315 -0.0000 0.5556
vn -0.9808 -0.0000 0.1951
vn -0.9808 -0.0000 -0.1951
vn -0.8315 -0.0000 -0.5556
vn -0.5556 -0.0000 -0.8315
vn -0.0000 -1.0000 -0.0000
vn 0.4997 0.4369 -0.7479
vn 0.7479 0.4369 -0.4997
vn 0.8822 0.4369 -0.1755
vn 0.8822 0.4369 0.1755
vn 0.7479 0.4369 0.4997
vn 0.1755 0.4369 0.8822
vn -0.4997 0.4369 0.7479
vn -0.7479 0.4369 0.4997
vn -0.8822 0.4369 0.1755
vn -0.8822 0.4369 -0.1755
vn -0.7479 0.4369 -0.4997
vn -0.4997 0.4369 -0.7479
vn -0.1755 0.4369 -0.8822
vn 0.1755 0.4369 -0.8822
vn -0.0000 1.0000 -0.0000
vn 0.1951 -0.0000 0.9808
vn 0.4997 0.4369 0.7479
vt 0.062500 0.833333
vt 0.000000 1.000000
vt 0.000000 0.833333
vt 1.000000 0.833333
vt 0.937500 1.000000
vt 0.937500 0.833333
vt 0.875000 1.000000
vt 0.875000 0.833333
vt 0.812500 1.000000
vt 0.812500 0.833333
vt 0.750000 1.000000
vt 0.750000 0.833333
vt 0.687500 1.000000
vt 0.687500 0.833333
vt 0.625000 1.000000
vt 0.625000 0.833333
vt 0.562500 1.000000
vt 0.562500 0.833333
vt 0.158156 0.028269
vt 0.250000 0.137998
vt 0.207139 0.146524
vt 0.500000 0.833333
vt 0.437500 1.000000
vt 0.437500 0.833333
vt 0.375000 1.000000
vt 0.375000 0.833333
vt 0.312500 1.000000
vt 0.312500 0.833333
vt 0.250000 1.000000
vt 0.250000 0.833333
vt 0.187500 1.000000
vt 0.187500 0.833333
vt 0.137998 0.250000
vt 0.146524 0.207139
vt 0.125000 1.000000
vt 0.125000 0.833333
vt 0.062500 1.000000
vt 0.875000 0.500000
vt 0.000000 0.000000
vt 0.937500 0.500000
vt 0.341844 0.471731
vt 0.329197 0.329197
vt 0.419706 0.419706
vt 0.471731 0.341844
vt 0.353476 0.292861
vt 0.490000 0.250000
vt 0.471731 0.158156
vt 0.362002 0.250000
vt 0.353476 0.207139
vt 0.419706 0.080294
vt 0.341844 0.028269
vt 0.250000 0.010000
vt 0.329197 0.170803
vt 0.080294 0.080294
vt 0.170803 0.170803
vt 0.028269 0.158156
vt 0.010000 0.250000
vt 0.146524 0.292861
vt 0.028269 0.341844
vt 0.170803 0.329197
vt 0.080294 0.419706
vt 0.158156 0.471731
vt 0.207139 0.353476
vt 0.250000 0.490000
vt 0.292861 0.353476
vt 0.250000 0.362002
vt 0.292861 0.146524
vt 1.000000 0.500000
vt 0.937500 0.666667
vt 0.125000 0.666667
vt 0.062500 0.666667
vt 0.062500 0.500000
vt 0.000000 0.666667
vt 0.000000 0.500000
vt 0.187500 0.666667
vt 0.125000 0.500000
vt 0.250000 0.666667
vt 0.187500 0.500000
vt 0.312500 0.666667
vt 0.250000 0.500000
vt 0.375000 0.666667
vt 0.312500 0.500000
vt 0.437500 0.666667
vt 0.375000 0.500000
vt 0.500000 0.666667
vt 0.437500 0.500000
vt 0.562500 0.666667
vt 0.500000 0.500000
vt 0.625000 0.666667
vt 0.562500 0.500000
vt 0.687500 0.666667
vt 0.625000 0.500000
vt 0.500000 1.000000
vt 0.750000 0.666667
vt 0.812500 0.666667
vt 0.750000 0.500000
vt 0.687500 0.500000
vt 0.875000 0.666667
vt 0.812500 0.500000
vt 1.000000 0.666667
vt 1.000000 1.000000
s 0
f 95/1/1 34/2/1 66/3/1
f 66/4/2 33/5/2 67/6/2
f 67/6/3 35/7/3 69/8/3
f 69/8/4 36/9/4 71/10/4
f 71/10/5 37/11/5 73/12/5
f 73/12/6 38/13/6 75/14/6
f 75/14/7 39/15/7 77/16/7
f 77/16/8 40/17/8 79/18/8
f 42/19/9 18/20/9 20/21/9
f 81/22/10 42/23/10 83/24/10
f 83/24/11 43/25/11 85/26/11
f 85/26/12 44/27/12 87/28/12
f 87/28/13 45/29/13 89/30/13
f 89/30/14 46/31/14 91/32/14
f 26/33/13 60/34/13 61/33/13
f 91/32/15 47/35/15 93/36/15
f 93/36/16 48/37/16 95/1/16
f 5/38/17 98/39/17 3/40/17
f 33/41/18 6/42/18 35/43/18
f 6/42/19 36/44/19 35/43/19
f 8/45/20 37/46/20 36/44/20
f 38/47/21 10/48/21 12/49/21
f 12/49/22 39/50/22 38/47/22
f 40/51/23 18/20/23 41/52/23
f 14/53/7 54/49/7 55/53/7
f 20/21/24 43/54/24 42/19/24
f 22/55/25 44/56/25 43/54/25
f 44/56/26 26/33/26 45/57/26
f 45/57/27 28/58/27 46/59/27
f 46/59/28 30/60/28 47/61/28
f 30/60/29 48/62/29 47/61/29
f 32/63/30 34/64/30 48/62/30
f 34/64/31 4/65/31 33/41/31
f 64/63/32 97/39/32 50/66/32
f 12/49/6 53/48/6 54/49/6
f 28/58/14 61/33/14 62/58/14
f 30/60/15 62/58/15 63/60/15
f 16/67/8 55/53/8 56/67/8
f 2/66/1 64/63/1 50/66/1
f 32/63/16 63/60/16 64/63/16
f 18/20/33 56/67/33 57/20/33
f 4/65/2 50/66/2 49/65/2
f 20/21/10 57/20/10 58/21/10
f 6/42/3 49/65/3 51/42/3
f 22/55/11 58/21/11 59/55/11
f 8/45/4 51/42/4 52/45/4
f 24/34/12 59/55/12 60/34/12
f 10/48/5 52/45/5 53/48/5
f 1/68/2 68/69/2 3/40/2
f 94/70/16 95/1/16 96/71/16
f 31/72/1 65/73/1 1/74/1
f 92/75/15 93/36/15 94/70/15
f 29/76/16 96/71/16 31/72/16
f 90/77/14 91/32/14 92/75/14
f 27/78/15 94/70/15 29/76/15
f 88/79/13 89/30/13 90/77/13
f 25/80/14 92/75/14 27/78/14
f 86/81/12 87/28/12 88/79/12
f 23/82/13 90/77/13 25/80/13
f 84/83/11 85/26/11 86/81/11
f 21/84/12 88/79/12 23/82/12
f 82/85/10 83/24/10 84/83/10
f 19/86/11 86/81/11 21/84/11
f 80/87/33 81/22/33 82/85/33
f 17/88/10 84/83/10 19/86/10
f 78/89/8 79/18/8 80/87/8
f 15/90/33 82/85/33 17/88/33
f 76/91/7 77/16/7 78/89/7
f 13/92/8 80/87/8 15/90/8
f 79/18/33 41/93/33 81/22/33
f 74/94/6 75/14/6 76/91/6
f 72/95/5 73/12/5 74/94/5
f 9/96/6 76/91/6 11/97/6
f 70/98/4 71/10/4 72/95/4
f 7/99/5 74/94/5 9/96/5
f 68/69/3 69/8/3 70/98/3
f 5/38/4 72/95/4 7/99/4
f 65/100/2 67/6/2 68/69/2
f 3/40/3 70/98/3 5/38/3
f 96/71/1 66/3/1 65/73/1
f 63/60/32 97/39/32 64/63/32
f 62/58/32 97/39/32 63/60/32
f 61/33/32 97/39/32 62/58/32
f 60/34/32 97/39/32 61/33/32
f 59/55/32 97/39/32 60/34/32
f 57/20/32 97/39/32 58/21/32
f 58/21/32 97/39/32 59/55/32
f 57/20/32 56/67/32 97/39/32
f 55/53/32 97/39/32 56/67/32
f 54/49/32 97/39/32 55/53/32
f 53/48/32 97/39/32 54/49/32
f 52/45/32 97/39/32 53/48/32
f 51/42/32 97/39/32 52/45/32
f 49/65/32 97/39/32 51/42/32
f 50/66/32 97/39/32 49/65/32
f 3/40/17 98/39/17 1/68/17
f 1/68/17 98/39/17 31/72/17
f 31/72/17 98/39/17 29/76/17
f 29/76/17 98/39/17 27/78/17
f 27/78/17 98/39/17 25/80/17
f 25/80/17 98/39/17 23/82/17
f 23/82/17 98/39/17 21/84/17
f 19/86/17 21/84/17 98/39/17
f 19/86/17 98/39/17 17/88/17
f 17/88/17 98/39/17 15/90/17
f 15/90/17 98/39/17 13/92/17
f 13/92/17 98/39/17 11/97/17
f 11/97/17 98/39/17 9/96/17
f 9/96/17 98/39/17 7/99/17
f 7/99/17 98/39/17 5/38/17
f 11/97/7 78/89/7 13/92/7
f 14/53/34 40/51/34 39/50/34
f 95/1/1 48/37/1 34/2/1
f 66/4/2 34/101/2 33/5/2
f 67/6/3 33/5/3 35/7/3
f 69/8/4 35/7/4 36/9/4
f 71/10/5 36/9/5 37/11/5
f 73/12/6 37/11/6 38/13/6
f 75/14/7 38/13/7 39/15/7
f 77/16/8 39/15/8 40/17/8
f 42/19/9 41/52/9 18/20/9
f 81/22/10 41/93/10 42/23/10
f 83/24/11 42/23/11 43/25/11
f 85/26/12 43/25/12 44/27/12
f 87/28/13 44/27/13 45/29/13
f 89/30/14 45/29/14 46/31/14
f 26/33/13 24/34/13 60/34/13
f 91/32/15 46/31/15 47/35/15
f 93/36/16 47/35/16 48/37/16
f 33/41/18 4/65/18 6/42/18
f 6/42/19 8/45/19 36/44/19
f 8/45/20 10/48/20 37/46/20
f 38/47/21 37/46/21 10/48/21
f 12/49/22 14/53/22 39/50/22
f 40/51/23 16/67/23 18/20/23
f 14/53/7 12/49/7 54/49/7
f 20/21/24 22/55/24 43/54/24
f 22/55/25 24/34/25 44/56/25
f 44/56/26 24/34/26 26/33/26
f 45/57/27 26/33/27 28/58/27
f 46/59/28 28/58/28 30/60/28
f 30/60/29 32/63/29 48/62/29
f 32/63/30 2/66/30 34/64/30
f 34/64/31 2/66/31 4/65/31
f 12/49/6 10/48/6 53/48/6
f 28/58/14 26/33/14 61/33/14
f 30/60/15 28/58/15 62/58/15
f 16/67/8 14/53/8 55/53/8
f 2/66/1 32/63/1 64/63/1
f 32/63/16 30/60/16 63/60/16
f 18/20/33 16/67/33 56/67/33
f 4/65/2 2/66/2 50/66/2
f 20/21/10 18/20/10 57/20/10
f 6/42/3 4/65/3 49/65/3
f 22/55/11 20/21/11 58/21/11
f 8/45/4 6/42/4 51/42/4
f 24/34/12 22/55/12 59/55/12
f 10/48/5 8/45/5 52/45/5
f 1/68/2 65/100/2 68/69/2
f 94/70/16 93/36/16 95/1/16
f 31/72/1 96/71/1 65/73/1
f 92/75/15 91/32/15 93/36/15
f 29/76/16 94/70/16 96/71/16
f 90/77/14 89/30/14 91/32/14
f 27/78/15 92/75/15 94/70/15
f 88/79/13 87/28/13 89/30/13
f 25/80/14 90/77/14 92/75/14
f 86/81/12 85/26/12 87/28/12
f 23/82/13 88/79/13 90/77/13
f 84/83/11 83/24/11 85/26/11
f 21/84/12 86/81/12 88/79/12
f 82/85/10 81/22/10 83/24/10
f 19/86/11 84/83/11 86/81/11
f 80/87/33 79/18/33 81/22/33
f 17/88/10 82/85/10 84/83/10
f 78/89/8 77/16/8 79/18/8
f 15/90/33 80/87/33 82/85/33
f 76/91/7 75/14/7 77/16/7
f 13/92/8 78/89/8 80/87/8
f 79/18/33 40/17/33 41/93/33
f 74/94/6 73/12/6 75/14/6
f 72/95/5 71/10/5 73/12/5
f 9/96/6 74/94/6 76/91/6
f 70/98/4 69/8/4 71/10/4
f 7/99/5 72/95/5 74/94/5
f 68/69/3 67/6/3 69/8/3
f 5/38/4 70/98/4 72/95/4
f 65/100/2 66/4/2 67/6/2
f 3/40/3 68/69/3 70/98/3
f 96/71/1 95/1/1 66/3/1
f 11/97/7 76/91/7 78/89/7
f 14/53/34 16/67/34 40/51/34
