# Blender 4.5.1 LTS
# www.blender.org
mtllib liquid.mtl
o Cylinder
v 0.000000 -0.112885 -0.030354
v 0.000000 0.109710 -0.013135
v 0.011616 -0.112885 -0.028043
v 0.005026 0.109710 -0.012135
v 0.021463 -0.112885 -0.021463
v 0.009288 0.109710 -0.009288
v 0.028043 -0.112885 -0.011616
v 0.012135 0.109710 -0.005026
v 0.030354 -0.112885 0.000000
v 0.013135 0.109710 0.000000
v 0.028043 -0.112885 0.011616
v 0.012135 0.109710 0.005026
v 0.021463 -0.112885 0.021463
v 0.009288 0.109710 0.009288
v 0.011616 -0.112885 0.028043
v 0.005026 0.109710 0.012135
v 0.000000 -0.112885 0.030354
v 0.000000 0.109710 0.013135
v -0.011616 -0.112885 0.028043
v -0.005026 0.109710 0.012135
v -0.021463 -0.112885 0.021463
v -0.009288 0.109710 0.009288
v -0.028043 -0.112885 0.011616
v -0.012135 0.109710 0.005026
v -0.030354 -0.112885 0.000000
v -0.013135 0.109710 0.000000
v -0.028043 -0.112885 -0.011616
v -0.012135 0.109710 -0.005026
v -0.021463 -0.112885 -0.021463
v -0.009288 0.109710 -0.009288
v -0.011616 -0.112885 -0.028043
v -0.005026 0.109710 -0.012135
v 0.011657 0.074736 -0.028143
v 0.000000 0.074736 -0.030462
v 0.021540 0.074736 -0.021540
v 0.028143 0.074736 -0.011657
v 0.030462 0.074736 0.000000
v 0.028143 0.074736 0.011657
v 0.021540 0.074736 0.021540
v 0.011657 0.074736 0.028143
v 0.000000 0.074736 0.030462
v -0.011657 0.074736 0.028143
v -0.021540 0.074736 0.021540
v -0.028143 0.074736 0.011657
v -0.030462 0.074736 0.000000
v -0.028143 0.074736 -0.011657
v -0.021540 0.074736 -0.021540
v -0.011657 0.074736 -0.028143
v 0.004983 0.173285 -0.012029
v 0.000000 0.173285 -0.013021
v 0.009207 0.173285 -0.009207
v 0.012029 0.173285 -0.004983
v 0.013021 0.173285 0.000000
v 0.012029 0.173285 0.004983
v 0.009207 0.173285 0.009207
v 0.004983 0.173285 0.012029
v 0.000000 0.173285 0.013021
v -0.004983 0.173285 0.012029
v -0.009207 0.173285 0.009207
v -0.012029 0.173285 0.004983
v -0.013021 0.173285 0.000000
v -0.012029 0.173285 -0.004983
v -0.009207 0.173285 -0.009207
v -0.004983 0.173285 -0.012029
v 0.000000 -0.036414 -0.030461
v 0.000000 0.028713 -0.030461
v 0.011657 0.028713 -0.028142
v 0.011657 -0.036414 -0.028142
v 0.021539 0.028713 -0.021539
v 0.021539 -0.036414 -0.021539
v 0.028142 0.028713 -0.011657
v 0.028142 -0.036414 -0.011657
v 0.030461 0.028713 0.000000
v 0.030461 -0.036414 0.000000
v 0.028142 0.028713 0.011657
v 0.028142 -0.036414 0.011657
v 0.021539 0.028713 0.021539
v 0.021539 -0.036414 0.021539
v 0.011657 0.028713 0.028142
v 0.011657 -0.036414 0.028142
v 0.000000 0.028713 0.030461
v 0.000000 -0.036414 0.030461
v -0.011657 0.028713 0.028142
v -0.011657 -0.036414 0.028142
v -0.021539 0.028713 0.021539
v -0.021539 -0.036414 0.021539
v -0.028142 0.028713 0.011657
v -0.028142 -0.036414 0.011657
v -0.030461 0.028713 0.000000
v -0.030461 -0.036414 0.000000
v -0.028142 0.028713 -0.011657
v -0.028142 -0.036414 -0.011657
v -0.021539 0.028713 -0.021539
v -0.021539 -0.036414 -0.021539
v -0.011657 0.028713 -0.028142
v -0.011657 -0.036414 -0.028142
v 0.000000 0.173200 0.000000
v 0.000000 -0.112800 0.000000
vn 0.1951 -0.0000 0.9808
vn -0.1951 -0.0000 0.9808
vn -0.5556 -0.0000 0.8315
vn -0.8315 -0.0000 0.5556
vn -0.9808 -0.0000 0.1951
vn -0.9808 -0.0000 -0.1951
vn -0.8315 -0.0000 -0.5556
vn -0.5556 -0.0000 -0.8315
vn 0.1755 -0.4370 -0.8822
vn 0.1951 -0.0000 -0.9808
vn 0.5556 -0.0000 -0.8315
vn 0.8315 -0.0000 -0.5556
vn 0.9808 -0.0000 -0.1951
vn 0.9808 -0.0000 0.1951
vn 0.9808 -0.0018 -0.1952
vn 0.8315 -0.0000 0.5556
vn 0.5556 -0.0000 0.8315
vn 0.0016 1.0000 -0.0024
vn -0.4997 -0.4370 0.7479
vn -0.7479 -0.4370 0.4997
vn -0.8821 -0.4371 0.1755
vn -0.8822 -0.4370 -0.1755
vn -0.7479 -0.4370 -0.4997
vn -0.1755 -0.4370 -0.8822
vn -0.8315 -0.0018 -0.5556
vn 0.4997 -0.4370 -0.7479
vn 0.7479 -0.4370 -0.4997
vn 0.8821 -0.4371 -0.1755
vn 0.8822 -0.4370 0.1755
vn 0.7479 -0.4370 0.4997
vn 0.4997 -0.4370 0.7479
vn 0.1755 -0.4370 0.8822
vn -0.1755 -0.4370 0.8822
vn -0.0013 -1.0000 -0.0065
vn -0.9808 -0.0018 -0.1952
vn 0.9808 -0.0018 0.1952
vn 0.8315 -0.0018 0.5556
vn -0.5556 -0.0018 -0.8315
vn 0.1951 -0.0018 0.9808
vn 0.5556 -0.0018 0.8315
vn -0.1951 -0.0018 -0.9808
vn -0.1951 -0.0018 0.9808
vn 0.1951 -0.0018 -0.9808
vn -0.5556 -0.0018 0.8315
vn 0.5556 -0.0018 -0.8315
vn -0.8315 -0.0018 0.5556
vn 0.8315 -0.0018 -0.5556
vn -0.9808 -0.0018 0.1952
vn -0.1951 0.0014 0.9808
vn 0.1951 0.0014 0.9808
vn 0.5556 0.0014 0.8315
vn 0.8315 0.0014 0.5556
vn 0.9808 0.0014 0.1951
vn 0.9808 0.0014 -0.1951
vn 0.8315 0.0014 -0.5556
vn 0.5556 0.0014 -0.8315
vn -0.1951 -0.0000 -0.9808
vn 0.1951 0.0014 -0.9808
vn -0.1951 0.0014 -0.9808
vn -0.5556 0.0014 -0.8315
vn -0.9808 0.0014 -0.1951
vn -0.9808 0.0014 0.1951
vn -0.8315 0.0014 0.5556
vn -0.5556 0.0014 0.8315
vn -0.0037 -1.0000 -0.0055
vn -0.0055 -1.0000 -0.0037
vn -0.0065 -1.0000 -0.0013
vn -0.0065 -1.0000 0.0013
vn -0.0055 -1.0000 0.0037
vn -0.0013 -1.0000 0.0065
vn -0.0037 -1.0000 0.0055
vn 0.0013 -1.0000 0.0065
vn 0.0037 -1.0000 0.0055
vn 0.0055 -1.0000 0.0037
vn 0.0065 -1.0000 0.0013
vn 0.0065 -1.0000 -0.0013
vn 0.0055 -1.0000 -0.0037
vn 0.0037 -1.0000 -0.0055
vn 0.0013 -1.0000 -0.0065
vn 0.0006 1.0000 -0.0028
vn -0.0006 1.0000 -0.0028
vn -0.0016 1.0000 -0.0024
vn -0.0024 1.0000 -0.0016
vn -0.0028 1.0000 -0.0005
vn -0.0028 1.0000 0.0005
vn -0.0024 1.0000 0.0016
vn -0.0016 1.0000 0.0024
vn -0.0006 1.0000 0.0028
vn 0.0006 1.0000 0.0028
vn 0.0016 1.0000 0.0024
vn 0.0024 1.0000 0.0016
vn 0.0028 1.0000 0.0005
vn 0.0028 1.0000 -0.0005
vn 0.0024 1.0000 -0.0016
vn -0.8315 0.0014 -0.5556
vn -0.4997 -0.4370 -0.7479
vn -0.8822 -0.4370 0.1755
vn -0.8821 -0.4371 -0.1755
vn 0.8822 -0.4370 -0.1755
vn 0.8821 -0.4371 0.1755
vt 0.000000 1.000000
vt 0.062500 0.833333
vt 0.000000 0.833333
vt 0.937500 1.000000
vt 1.000000 0.833333
vt 0.937500 0.833333
vt 0.875000 1.000000
vt 0.875000 0.833333
vt 0.812500 1.000000
vt 0.812500 0.833333
vt 0.750000 1.000000
vt 0.750000 0.833333
vt 0.687500 0.833333
vt 0.625000 1.000000
vt 0.625000 0.833333
vt 0.562500 1.000000
vt 0.562500 0.833333
vt 0.158156 0.028269
vt 0.250000 0.137998
vt 0.250000 0.010000
vt 0.437500 1.000000
vt 0.500000 0.833333
vt 0.437500 0.833333
vt 0.375000 1.000000
vt 0.375000 0.833333
vt 0.312500 1.000000
vt 0.312500 0.833333
vt 0.250000 1.000000
vt 0.250000 0.833333
vt 0.187500 0.833333
vt 0.137998 0.250000
vt 0.146524 0.207139
vt 0.125000 1.000000
vt 0.125000 0.833333
vt 0.062500 1.000000
vt 0.875000 0.500000
vt 0.937500 0.500000
vt 0.000000 0.000000
vt 0.341844 0.471731
vt 0.329197 0.329197
vt 0.292861 0.353476
vt 0.471731 0.341844
vt 0.419706 0.419706
vt 0.362002 0.250000
vt 0.353476 0.292861
vt 0.471731 0.158156
vt 0.490000 0.250000
vt 0.419706 0.080294
vt 0.353476 0.207139
vt 0.341844 0.028269
vt 0.292861 0.146524
vt 0.329197 0.170803
vt 0.170803 0.170803
vt 0.207139 0.146524
vt 0.028269 0.158156
vt 0.080294 0.080294
vt 0.028269 0.341844
vt 0.010000 0.250000
vt 0.170803 0.329197
vt 0.146524 0.292861
vt 0.158156 0.471731
vt 0.080294 0.419706
vt 0.250000 0.490000
vt 0.207139 0.353476
vt 0.250000 0.362002
vt 0.937500 0.666667
vt 1.000000 0.500000
vt 0.125000 0.666667
vt 0.062500 0.666667
vt 0.000000 0.666667
vt 0.062500 0.500000
vt 0.000000 0.500000
vt 0.187500 0.666667
vt 0.125000 0.500000
vt 0.250000 0.666667
vt 0.187500 0.500000
vt 0.312500 0.666667
vt 0.250000 0.500000
vt 0.375000 0.666667
vt 0.312500 0.500000
vt 0.437500 0.666667
vt 0.375000 0.500000
vt 0.500000 0.666667
vt 0.437500 0.500000
vt 0.562500 0.666667
vt 0.500000 0.500000
vt 0.625000 0.666667
vt 0.562500 0.500000
vt 0.687500 0.666667
vt 0.625000 0.500000
vt 0.500000 1.000000
vt 0.750000 0.666667
vt 0.812500 0.666667
vt 0.687500 0.500000
vt 0.750000 0.500000
vt 0.875000 0.666667
vt 0.812500 0.500000
vt 1.000000 0.666667
vt 1.000000 1.000000
vt 0.687500 1.000000
vt 0.187500 1.000000
s 0
f 34/1/1 95/2/1 66/3/1
f 33/4/2 66/5/2 67/6/2
f 35/7/3 67/6/3 69/8/3
f 36/9/4 69/8/4 71/10/4
f 37/11/5 71/10/5 73/12/5
f 75/13/6 37/11/6 73/12/6
f 39/14/7 75/13/7 77/15/7
f 40/16/8 77/15/8 79/17/8
f 42/18/9 18/19/9 41/20/9
f 42/21/10 81/22/10 83/23/10
f 43/24/11 83/23/11 85/25/11
f 44/26/12 85/25/12 87/27/12
f 45/28/13 87/27/13 89/29/13
f 91/30/14 45/28/14 89/29/14
f 61/31/15 24/32/15 26/31/15
f 47/33/16 91/30/16 93/34/16
f 48/35/17 93/34/17 95/2/17
f 5/36/18 3/37/18 98/38/18
f 33/39/19 6/40/19 4/41/19
f 36/42/20 6/40/20 35/43/20
f 36/42/21 10/44/21 8/45/21
f 38/46/22 10/44/22 37/47/22
f 39/48/23 12/49/23 38/46/23
f 40/50/24 18/19/24 16/51/24
f 54/49/25 14/52/25 55/52/25
f 42/18/26 22/53/26 20/54/26
f 44/55/27 22/53/27 43/56/27
f 44/55/28 26/31/28 24/32/28
f 46/57/29 26/31/29 45/58/29
f 46/57/30 30/59/30 28/60/30
f 48/61/31 30/59/31 47/62/31
f 34/63/32 32/64/32 48/61/32
f 34/63/33 4/41/33 2/65/33
f 64/64/34 50/65/34 97/38/34
f 53/44/35 12/49/35 54/49/35
f 61/31/36 28/60/36 62/60/36
f 62/60/37 30/59/37 63/59/37
f 55/52/38 16/51/38 56/51/38
f 64/64/39 2/65/39 50/65/39
f 63/59/40 32/64/40 64/64/40
f 56/51/41 18/19/41 57/19/41
f 50/65/42 4/41/42 49/41/42
f 57/19/43 20/54/43 58/54/43
f 49/41/44 6/40/44 51/40/44
f 58/54/45 22/53/45 59/53/45
f 52/45/46 6/40/46 8/45/46
f 59/53/47 24/32/47 60/32/47
f 53/44/48 8/45/48 10/44/48
f 68/66/49 1/67/49 3/37/49
f 95/2/17 94/68/17 96/69/17
f 65/70/50 31/71/50 1/72/50
f 93/34/16 92/73/16 94/68/16
f 96/69/51 29/74/51 31/71/51
f 91/30/14 90/75/14 92/73/14
f 94/68/52 27/76/52 29/74/52
f 89/29/13 88/77/13 90/75/13
f 27/76/53 90/75/53 25/78/53
f 87/27/12 86/79/12 88/77/12
f 90/75/54 23/80/54 25/78/54
f 85/25/11 84/81/11 86/79/11
f 88/77/55 21/82/55 23/80/55
f 83/23/10 82/83/10 84/81/10
f 86/79/56 19/84/56 21/82/56
f 81/22/57 80/85/57 82/83/57
f 84/81/58 17/86/58 19/84/58
f 79/17/8 78/87/8 80/85/8
f 82/83/59 15/88/59 17/86/59
f 77/15/7 76/89/7 78/87/7
f 80/85/60 13/90/60 15/88/60
f 41/91/57 79/17/57 81/22/57
f 75/13/6 74/92/6 76/89/6
f 73/12/5 72/93/5 74/92/5
f 11/94/61 74/92/61 9/95/61
f 71/10/4 70/96/4 72/93/4
f 74/92/62 7/97/62 9/95/62
f 69/8/3 68/66/3 70/96/3
f 72/93/63 5/36/63 7/97/63
f 67/6/2 65/98/2 68/66/2
f 70/96/64 3/37/64 5/36/64
f 66/3/1 96/69/1 65/70/1
f 63/59/65 64/64/65 97/38/65
f 62/60/66 63/59/66 97/38/66
f 61/31/67 62/60/67 97/38/67
f 60/32/68 61/31/68 97/38/68
f 59/53/69 60/32/69 97/38/69
f 57/19/70 58/54/70 97/38/70
f 58/54/71 59/53/71 97/38/71
f 57/19/72 97/38/72 56/51/72
f 55/52/73 56/51/73 97/38/73
f 54/49/74 55/52/74 97/38/74
f 53/44/75 54/49/75 97/38/75
f 52/45/76 53/44/76 97/38/76
f 51/40/77 52/45/77 97/38/77
f 49/41/78 51/40/78 97/38/78
f 50/65/79 49/41/79 97/38/79
f 3/37/80 1/67/80 98/38/80
f 1/67/81 31/71/81 98/38/81
f 31/71/82 29/74/82 98/38/82
f 29/74/83 27/76/83 98/38/83
f 27/76/84 25/78/84 98/38/84
f 25/78/85 23/80/85 98/38/85
f 23/80/86 21/82/86 98/38/86
f 19/84/87 98/38/87 21/82/87
f 19/84/88 17/86/88 98/38/88
f 17/86/89 15/88/89 98/38/89
f 15/88/90 13/90/90 98/38/90
f 13/90/91 11/94/91 98/38/91
f 11/94/92 9/95/92 98/38/92
f 9/95/93 7/97/93 98/38/93
f 7/97/94 5/36/94 98/38/94
f 78/87/95 11/94/95 13/90/95
f 40/50/96 14/52/96 39/48/96
f 34/1/1 48/35/1 95/2/1
f 33/4/2 34/99/2 66/5/2
f 35/7/3 33/4/3 67/6/3
f 36/9/4 35/7/4 69/8/4
f 37/11/5 36/9/5 71/10/5
f 75/13/6 38/100/6 37/11/6
f 39/14/7 38/100/7 75/13/7
f 40/16/8 39/14/8 77/15/8
f 42/18/9 20/54/9 18/19/9
f 42/21/10 41/91/10 81/22/10
f 43/24/11 42/21/11 83/23/11
f 44/26/12 43/24/12 85/25/12
f 45/28/13 44/26/13 87/27/13
f 91/30/14 46/101/14 45/28/14
f 61/31/15 60/32/15 24/32/15
f 47/33/16 46/101/16 91/30/16
f 48/35/17 47/33/17 93/34/17
f 33/39/19 35/43/19 6/40/19
f 36/42/20 8/45/20 6/40/20
f 36/42/97 37/47/97 10/44/97
f 38/46/98 12/49/98 10/44/98
f 39/48/23 14/52/23 12/49/23
f 40/50/24 41/20/24 18/19/24
f 54/49/25 12/49/25 14/52/25
f 42/18/26 43/56/26 22/53/26
f 44/55/27 24/32/27 22/53/27
f 44/55/99 45/58/99 26/31/99
f 46/57/100 28/60/100 26/31/100
f 46/57/30 47/62/30 30/59/30
f 48/61/31 32/64/31 30/59/31
f 34/63/32 2/65/32 32/64/32
f 34/63/33 33/39/33 4/41/33
f 53/44/35 10/44/35 12/49/35
f 61/31/36 26/31/36 28/60/36
f 62/60/37 28/60/37 30/59/37
f 55/52/38 14/52/38 16/51/38
f 64/64/39 32/64/39 2/65/39
f 63/59/40 30/59/40 32/64/40
f 56/51/41 16/51/41 18/19/41
f 50/65/42 2/65/42 4/41/42
f 57/19/43 18/19/43 20/54/43
f 49/41/44 4/41/44 6/40/44
f 58/54/45 20/54/45 22/53/45
f 52/45/46 51/40/46 6/40/46
f 59/53/47 22/53/47 24/32/47
f 53/44/48 52/45/48 8/45/48
f 68/66/49 65/98/49 1/67/49
f 95/2/17 93/34/17 94/68/17
f 65/70/50 96/69/50 31/71/50
f 93/34/16 91/30/16 92/73/16
f 96/69/51 94/68/51 29/74/51
f 91/30/14 89/29/14 90/75/14
f 94/68/52 92/73/52 27/76/52
f 89/29/13 87/27/13 88/77/13
f 27/76/53 92/73/53 90/75/53
f 87/27/12 85/25/12 86/79/12
f 90/75/54 88/77/54 23/80/54
f 85/25/11 83/23/11 84/81/11
f 88/77/55 86/79/55 21/82/55
f 83/23/10 81/22/10 82/83/10
f 86/79/56 84/81/56 19/84/56
f 81/22/57 79/17/57 80/85/57
f 84/81/58 82/83/58 17/86/58
f 79/17/8 77/15/8 78/87/8
f 82/83/59 80/85/59 15/88/59
f 77/15/7 75/13/7 76/89/7
f 80/85/60 78/87/60 13/90/60
f 41/91/57 40/16/57 79/17/57
f 75/13/6 73/12/6 74/92/6
f 73/12/5 71/10/5 72/93/5
f 11/94/61 76/89/61 74/92/61
f 71/10/4 69/8/4 70/96/4
f 74/92/62 72/93/62 7/97/62
f 69/8/3 67/6/3 68/66/3
f 72/93/63 70/96/63 5/36/63
f 67/6/2 66/5/2 65/98/2
f 70/96/64 68/66/64 3/37/64
f 66/3/1 95/2/1 96/69/1
f 78/87/95 76/89/95 11/94/95
f 40/50/96 16/51/96 14/52/96
